<mxfile host="Electron" modified="2023-11-29T05:36:11.739Z" agent="Mozilla/5.0 (Windows NT 10.0; Win64; x64) AppleWebKit/537.36 (KHTML, like Gecko) draw.io/22.1.2 Chrome/114.0.5735.289 Electron/25.9.4 Safari/537.36" etag="29IRng5b_cVyXRxX5P3j" version="22.1.2" type="device" pages="7">
  <diagram name="Page-1" id="bB1tnt0SMZJW4v2Ykrct">
    <mxGraphModel dx="794" dy="559" grid="1" gridSize="10" guides="1" tooltips="1" connect="1" arrows="1" fold="1" page="1" pageScale="1" pageWidth="1100" pageHeight="850" math="0" shadow="0">
      <root>
        <mxCell id="0" />
        <mxCell id="1" parent="0" />
        <mxCell id="3XgC0hJyf-IoJRfYrE3W-25" style="edgeStyle=orthogonalEdgeStyle;rounded=0;orthogonalLoop=1;jettySize=auto;html=1;exitX=1;exitY=0.5;exitDx=0;exitDy=0;entryX=1;entryY=0.5;entryDx=0;entryDy=0;entryPerimeter=0;spacing=6;fontFamily=Garamond;fontSize=20;" parent="1" source="3XgC0hJyf-IoJRfYrE3W-1" target="ZBKwr-jBoWRPFvwuLSXk-4" edge="1">
          <mxGeometry relative="1" as="geometry">
            <mxPoint x="400" y="280" as="targetPoint" />
            <Array as="points">
              <mxPoint x="360" y="240" />
              <mxPoint x="360" y="280" />
            </Array>
          </mxGeometry>
        </mxCell>
        <mxCell id="3XgC0hJyf-IoJRfYrE3W-26" style="edgeStyle=orthogonalEdgeStyle;rounded=0;orthogonalLoop=1;jettySize=auto;html=1;exitX=1;exitY=0.75;exitDx=0;exitDy=0;entryX=1;entryY=0.5;entryDx=0;entryDy=0;entryPerimeter=0;spacing=6;fontFamily=Garamond;fontSize=20;" parent="1" source="3XgC0hJyf-IoJRfYrE3W-1" target="ZBKwr-jBoWRPFvwuLSXk-5" edge="1">
          <mxGeometry relative="1" as="geometry">
            <Array as="points">
              <mxPoint x="350" y="260" />
              <mxPoint x="350" y="360" />
            </Array>
            <mxPoint x="400" y="360" as="targetPoint" />
          </mxGeometry>
        </mxCell>
        <mxCell id="3XgC0hJyf-IoJRfYrE3W-1" value="Hash&lt;br style=&quot;font-size: 20px;&quot;&gt;&lt;div style=&quot;font-size: 20px;&quot;&gt;&lt;span style=&quot;background-color: initial; font-size: 20px;&quot;&gt;function&lt;/span&gt;&lt;/div&gt;" style="rounded=0;html=1;align=left;spacingTop=0;spacingLeft=0;spacingRight=0;spacingBottom=0;spacing=6;fontSize=20;fontFamily=Garamond;" parent="1" vertex="1">
          <mxGeometry x="240" y="200" width="80" height="80" as="geometry" />
        </mxCell>
        <mxCell id="3XgC0hJyf-IoJRfYrE3W-9" style="edgeStyle=orthogonalEdgeStyle;rounded=0;orthogonalLoop=1;jettySize=auto;html=1;exitX=1;exitY=0.5;exitDx=0;exitDy=0;entryX=0;entryY=0.25;entryDx=0;entryDy=0;spacing=6;fontFamily=Garamond;fontSize=20;" parent="1" source="3XgC0hJyf-IoJRfYrE3W-6" target="3XgC0hJyf-IoJRfYrE3W-1" edge="1">
          <mxGeometry relative="1" as="geometry" />
        </mxCell>
        <mxCell id="3XgC0hJyf-IoJRfYrE3W-6" value="The Shawshank&lt;br style=&quot;font-size: 20px;&quot;&gt;Redemption" style="rounded=0;html=1;fontFamily=Garamond;fontSize=20;spacing=6;align=left;" parent="1" vertex="1">
          <mxGeometry x="20" y="130" width="140" height="60" as="geometry" />
        </mxCell>
        <mxCell id="3XgC0hJyf-IoJRfYrE3W-10" style="edgeStyle=orthogonalEdgeStyle;rounded=0;orthogonalLoop=1;jettySize=auto;html=1;exitX=1;exitY=0.5;exitDx=0;exitDy=0;entryX=0;entryY=0.5;entryDx=0;entryDy=0;spacing=6;fontFamily=Garamond;fontSize=20;" parent="1" source="3XgC0hJyf-IoJRfYrE3W-7" target="3XgC0hJyf-IoJRfYrE3W-1" edge="1">
          <mxGeometry relative="1" as="geometry" />
        </mxCell>
        <mxCell id="3XgC0hJyf-IoJRfYrE3W-7" value="The Godfather" style="rounded=0;html=1;fontFamily=Garamond;fontSize=20;spacing=6;align=left;" parent="1" vertex="1">
          <mxGeometry x="20" y="210" width="140" height="60" as="geometry" />
        </mxCell>
        <mxCell id="3XgC0hJyf-IoJRfYrE3W-11" style="edgeStyle=orthogonalEdgeStyle;rounded=0;orthogonalLoop=1;jettySize=auto;html=1;exitX=1;exitY=0.5;exitDx=0;exitDy=0;entryX=0;entryY=0.75;entryDx=0;entryDy=0;spacing=6;fontFamily=Garamond;fontSize=20;" parent="1" source="3XgC0hJyf-IoJRfYrE3W-8" target="3XgC0hJyf-IoJRfYrE3W-1" edge="1">
          <mxGeometry relative="1" as="geometry">
            <mxPoint x="200" y="260" as="targetPoint" />
          </mxGeometry>
        </mxCell>
        <mxCell id="3XgC0hJyf-IoJRfYrE3W-8" value="The Dark &lt;br style=&quot;font-size: 20px;&quot;&gt;Knight" style="rounded=0;html=1;fontFamily=Garamond;fontSize=20;spacing=6;align=left;" parent="1" vertex="1">
          <mxGeometry x="20" y="290" width="140" height="60" as="geometry" />
        </mxCell>
        <mxCell id="3XgC0hJyf-IoJRfYrE3W-64" value="Hash table" style="rounded=0;whiteSpace=wrap;html=1;fontFamily=Garamond;fontSize=20;spacing=6;" parent="1" vertex="1">
          <mxGeometry x="440" y="100" width="320" height="40" as="geometry" />
        </mxCell>
        <mxCell id="3XgC0hJyf-IoJRfYrE3W-65" value="---" style="rounded=0;whiteSpace=wrap;html=1;fontFamily=Garamond;fontSize=20;spacing=6;" parent="1" vertex="1">
          <mxGeometry x="440" y="140" width="240" height="40" as="geometry" />
        </mxCell>
        <mxCell id="3XgC0hJyf-IoJRfYrE3W-67" value="---" style="rounded=0;whiteSpace=wrap;html=1;fontFamily=Garamond;fontSize=20;spacing=6;" parent="1" vertex="1">
          <mxGeometry x="680" y="140" width="80" height="40" as="geometry" />
        </mxCell>
        <mxCell id="3XgC0hJyf-IoJRfYrE3W-68" value="---" style="rounded=0;whiteSpace=wrap;html=1;fontFamily=Garamond;fontSize=20;spacing=6;" parent="1" vertex="1">
          <mxGeometry x="440" y="180" width="240" height="40" as="geometry" />
        </mxCell>
        <mxCell id="3XgC0hJyf-IoJRfYrE3W-69" value="---" style="rounded=0;whiteSpace=wrap;html=1;fontFamily=Garamond;fontSize=20;spacing=6;" parent="1" vertex="1">
          <mxGeometry x="680" y="180" width="80" height="40" as="geometry" />
        </mxCell>
        <mxCell id="3XgC0hJyf-IoJRfYrE3W-70" value="The Shawshank Redemption" style="rounded=0;whiteSpace=wrap;html=1;fontFamily=Garamond;fontSize=20;spacing=6;" parent="1" vertex="1">
          <mxGeometry x="440" y="220" width="240" height="40" as="geometry" />
        </mxCell>
        <mxCell id="3XgC0hJyf-IoJRfYrE3W-71" value="1994" style="rounded=0;whiteSpace=wrap;html=1;fontFamily=Garamond;fontSize=20;spacing=6;" parent="1" vertex="1">
          <mxGeometry x="680" y="220" width="80" height="40" as="geometry" />
        </mxCell>
        <mxCell id="3XgC0hJyf-IoJRfYrE3W-72" value="---" style="rounded=0;whiteSpace=wrap;html=1;fontFamily=Garamond;fontSize=20;spacing=6;" parent="1" vertex="1">
          <mxGeometry x="440" y="300" width="240" height="40" as="geometry" />
        </mxCell>
        <mxCell id="3XgC0hJyf-IoJRfYrE3W-73" value="---" style="rounded=0;whiteSpace=wrap;html=1;fontFamily=Garamond;fontSize=20;spacing=6;" parent="1" vertex="1">
          <mxGeometry x="680" y="300" width="80" height="40" as="geometry" />
        </mxCell>
        <mxCell id="3XgC0hJyf-IoJRfYrE3W-74" value="The Dark Knight" style="rounded=0;whiteSpace=wrap;html=1;fontFamily=Garamond;fontSize=20;spacing=6;" parent="1" vertex="1">
          <mxGeometry x="440" y="340" width="240" height="40" as="geometry" />
        </mxCell>
        <mxCell id="3XgC0hJyf-IoJRfYrE3W-75" value="2008" style="rounded=0;whiteSpace=wrap;html=1;fontFamily=Garamond;fontSize=20;spacing=6;" parent="1" vertex="1">
          <mxGeometry x="680" y="340" width="80" height="40" as="geometry" />
        </mxCell>
        <mxCell id="3XgC0hJyf-IoJRfYrE3W-76" value="The Godfather" style="rounded=0;whiteSpace=wrap;html=1;fontFamily=Garamond;fontSize=20;spacing=6;" parent="1" vertex="1">
          <mxGeometry x="440" y="260" width="240" height="40" as="geometry" />
        </mxCell>
        <mxCell id="3XgC0hJyf-IoJRfYrE3W-77" value="1972" style="rounded=0;whiteSpace=wrap;html=1;fontFamily=Garamond;fontSize=20;spacing=6;" parent="1" vertex="1">
          <mxGeometry x="680" y="260" width="80" height="40" as="geometry" />
        </mxCell>
        <mxCell id="ZBKwr-jBoWRPFvwuLSXk-1" value="&lt;div style=&quot;font-size: 20px;&quot;&gt;The hash table is an array of key-value pairs. Each block of memory can store a key-value pair and is called a bucket.&lt;/div&gt;" style="text;html=1;strokeColor=none;fillColor=none;align=left;verticalAlign=middle;whiteSpace=wrap;rounded=0;fontFamily=Garamond;fontSize=20;spacing=6;" parent="1" vertex="1">
          <mxGeometry x="440" y="400" width="320" height="80" as="geometry" />
        </mxCell>
        <mxCell id="ZBKwr-jBoWRPFvwuLSXk-2" value="2" style="shape=or;whiteSpace=wrap;html=1;direction=west;fontSize=20;fontFamily=Garamond;spacing=6;" parent="1" vertex="1">
          <mxGeometry x="410" y="220" width="30" height="40" as="geometry" />
        </mxCell>
        <mxCell id="ZBKwr-jBoWRPFvwuLSXk-3" style="edgeStyle=orthogonalEdgeStyle;rounded=0;orthogonalLoop=1;jettySize=auto;html=1;exitX=1;exitY=0.25;exitDx=0;exitDy=0;entryX=1;entryY=0.5;entryDx=0;entryDy=0;entryPerimeter=0;spacing=6;fontFamily=Garamond;fontSize=20;" parent="1" source="3XgC0hJyf-IoJRfYrE3W-1" target="ZBKwr-jBoWRPFvwuLSXk-2" edge="1">
          <mxGeometry relative="1" as="geometry">
            <Array as="points">
              <mxPoint x="370" y="220" />
              <mxPoint x="370" y="240" />
            </Array>
          </mxGeometry>
        </mxCell>
        <mxCell id="ZBKwr-jBoWRPFvwuLSXk-4" value="3" style="shape=or;whiteSpace=wrap;html=1;direction=west;fontSize=20;fontFamily=Garamond;spacing=6;" parent="1" vertex="1">
          <mxGeometry x="410" y="260" width="30" height="40" as="geometry" />
        </mxCell>
        <mxCell id="ZBKwr-jBoWRPFvwuLSXk-5" value="5" style="shape=or;whiteSpace=wrap;html=1;direction=west;fontSize=20;fontFamily=Garamond;spacing=6;" parent="1" vertex="1">
          <mxGeometry x="410" y="340" width="30" height="40" as="geometry" />
        </mxCell>
      </root>
    </mxGraphModel>
  </diagram>
  <diagram id="UFBptcyybyDSFWhnPOK_" name="Page-2">
    <mxGraphModel dx="780" dy="544" grid="1" gridSize="10" guides="1" tooltips="1" connect="1" arrows="1" fold="1" page="1" pageScale="1" pageWidth="1100" pageHeight="850" math="0" shadow="0">
      <root>
        <mxCell id="0" />
        <mxCell id="1" parent="0" />
        <mxCell id="fMelH3czgm8rzjSIlPwI-2" value="int hash_function(char *key)&lt;br style=&quot;font-size: 20px;&quot;&gt;{&lt;br style=&quot;font-size: 20px;&quot;&gt;&amp;nbsp; &amp;nbsp; return 5;&lt;br style=&quot;font-size: 20px;&quot;&gt;}" style="rounded=1;whiteSpace=wrap;html=1;align=left;spacing=6;fontFamily=Lucida Console;fontSize=20;labelBackgroundColor=none;arcSize=0;" parent="1" vertex="1">
          <mxGeometry x="40" y="40" width="360" height="200" as="geometry" />
        </mxCell>
        <mxCell id="fMelH3czgm8rzjSIlPwI-3" value="Fast but too much collision" style="text;html=1;strokeColor=none;fillColor=none;align=center;verticalAlign=middle;whiteSpace=wrap;rounded=0;fontFamily=Garamond;fontSize=20;" parent="1" vertex="1">
          <mxGeometry x="40" y="240" width="360" height="60" as="geometry" />
        </mxCell>
        <mxCell id="fMelH3czgm8rzjSIlPwI-4" value="int hash_function(char *key)&lt;br style=&quot;font-size: 20px;&quot;&gt;{&lt;br style=&quot;font-size: 20px;&quot;&gt;&amp;nbsp; &amp;nbsp; int length = 0;&lt;br&gt;&amp;nbsp; &amp;nbsp; while (*key++) ++length;&lt;br&gt;&amp;nbsp; &amp;nbsp; return length;&lt;br style=&quot;font-size: 20px;&quot;&gt;}" style="rounded=1;whiteSpace=wrap;html=1;align=left;spacing=6;fontFamily=Lucida Console;fontSize=20;labelBackgroundColor=none;arcSize=0;" parent="1" vertex="1">
          <mxGeometry x="40" y="300" width="360" height="200" as="geometry" />
        </mxCell>
        <mxCell id="fMelH3czgm8rzjSIlPwI-5" value="Fast but still frequent collision if keys are of same length" style="text;html=1;strokeColor=none;fillColor=none;align=center;verticalAlign=middle;whiteSpace=wrap;rounded=0;fontFamily=Garamond;fontSize=20;" parent="1" vertex="1">
          <mxGeometry x="40" y="500" width="360" height="60" as="geometry" />
        </mxCell>
        <mxCell id="fMelH3czgm8rzjSIlPwI-6" value="int hash_function(char *key)&lt;br style=&quot;font-size: 20px;&quot;&gt;{&lt;br style=&quot;font-size: 20px;&quot;&gt;&amp;nbsp; &amp;nbsp; int sum = 0;&lt;br&gt;&amp;nbsp; &amp;nbsp; while (*key) sum +=&amp;nbsp; &amp;nbsp; *key++;&lt;br&gt;&amp;nbsp; &amp;nbsp; return sum;&lt;br style=&quot;font-size: 20px;&quot;&gt;}" style="rounded=1;whiteSpace=wrap;html=1;align=left;spacing=6;fontFamily=Lucida Console;fontSize=20;labelBackgroundColor=none;arcSize=0;" parent="1" vertex="1">
          <mxGeometry x="440" y="40" width="360" height="200" as="geometry" />
        </mxCell>
        <mxCell id="fMelH3czgm8rzjSIlPwI-7" value="Fast and collision is reduced now that sum is more random" style="text;html=1;strokeColor=none;fillColor=none;align=center;verticalAlign=middle;whiteSpace=wrap;rounded=0;fontFamily=Garamond;fontSize=20;" parent="1" vertex="1">
          <mxGeometry x="440" y="240" width="360" height="60" as="geometry" />
        </mxCell>
        <mxCell id="y1t9HOXJuMZA2RU4ND6u-1" value="int hash_function(char *key)&lt;br style=&quot;font-size: 20px;&quot;&gt;{&lt;br style=&quot;font-size: 20px;&quot;&gt;&amp;nbsp; &amp;nbsp; int sum = 0;&lt;br&gt;&amp;nbsp; &amp;nbsp; while (*key) sum = 2*sum + *key++;&lt;br&gt;&amp;nbsp; &amp;nbsp; return sum;&lt;br style=&quot;font-size: 20px;&quot;&gt;}" style="rounded=1;whiteSpace=wrap;html=1;align=left;spacing=6;fontFamily=Lucida Console;fontSize=20;labelBackgroundColor=none;arcSize=0;" parent="1" vertex="1">
          <mxGeometry x="440" y="300" width="360" height="200" as="geometry" />
        </mxCell>
        <mxCell id="y1t9HOXJuMZA2RU4ND6u-2" value="Fast and collsion is reduced further now that the sum is more distributed" style="text;html=1;strokeColor=none;fillColor=none;align=center;verticalAlign=middle;whiteSpace=wrap;rounded=0;fontFamily=Garamond;fontSize=20;" parent="1" vertex="1">
          <mxGeometry x="440" y="500" width="360" height="60" as="geometry" />
        </mxCell>
        <mxCell id="iUoc0C_UMV81Lh17znTq-1" value="It is also more random for keys which have the same characters" style="text;html=1;strokeColor=none;fillColor=none;align=center;verticalAlign=middle;whiteSpace=wrap;rounded=0;fontFamily=Garamond;fontSize=20;" parent="1" vertex="1">
          <mxGeometry x="440" y="550" width="360" height="60" as="geometry" />
        </mxCell>
      </root>
    </mxGraphModel>
  </diagram>
  <diagram id="q6Ne9vRp39SoMEG4Hc69" name="Page-3">
    <mxGraphModel dx="794" dy="559" grid="1" gridSize="10" guides="1" tooltips="1" connect="1" arrows="1" fold="1" page="1" pageScale="1" pageWidth="1100" pageHeight="850" math="0" shadow="0">
      <root>
        <mxCell id="0" />
        <mxCell id="1" parent="0" />
        <mxCell id="4PQiP1_kq0XXCn7xBwL1-1" value="int hash_function(char *key)&lt;br style=&quot;font-size: 20px;&quot;&gt;{&lt;br style=&quot;font-size: 20px;&quot;&gt;&amp;nbsp; &amp;nbsp; int id = 0;&lt;br&gt;&amp;nbsp; &amp;nbsp; ++key;&lt;br&gt;&amp;nbsp; &amp;nbsp; while (*key) &lt;br&gt;&amp;nbsp; &amp;nbsp; &amp;nbsp; &amp;nbsp; id = 10*id + (*key++ - &#39;0&#39;);&lt;br&gt;&amp;nbsp; &amp;nbsp; return id;&lt;br style=&quot;font-size: 20px;&quot;&gt;}" style="rounded=1;whiteSpace=wrap;html=1;align=left;spacing=6;fontFamily=Lucida Console;fontSize=20;labelBackgroundColor=none;arcSize=7;" parent="1" vertex="1">
          <mxGeometry x="40" y="40" width="480" height="240" as="geometry" />
        </mxCell>
        <mxCell id="9JaoTb7UYbh6upOhPJ5I-1" value="&lt;div&gt;An office assigns an id to each of its employees like&amp;nbsp;&lt;span style=&quot;background-color: initial;&quot;&gt;E0, E1, E2, E3 ...&lt;/span&gt;&lt;/div&gt;&lt;div&gt;In this case using identity hashing is a good choice due to the nature of ids.&lt;/div&gt;" style="text;html=1;strokeColor=none;fillColor=none;align=left;verticalAlign=middle;whiteSpace=wrap;rounded=0;fontFamily=Garamond;fontSize=20;spacing=6;" parent="1" vertex="1">
          <mxGeometry x="40" y="280" width="480" height="120" as="geometry" />
        </mxCell>
      </root>
    </mxGraphModel>
  </diagram>
  <diagram id="u-zdKquvK0Ui6et9cas8" name="Page-4">
    <mxGraphModel dx="794" dy="559" grid="1" gridSize="10" guides="1" tooltips="1" connect="1" arrows="1" fold="1" page="1" pageScale="1" pageWidth="1100" pageHeight="850" math="0" shadow="0">
      <root>
        <mxCell id="0" />
        <mxCell id="1" parent="0" />
        <mxCell id="YpdxZzSUTDV1Zn9vbhq5-10" style="edgeStyle=orthogonalEdgeStyle;rounded=0;orthogonalLoop=1;jettySize=auto;html=1;exitX=1;exitY=0.5;exitDx=0;exitDy=0;entryX=0;entryY=0.5;entryDx=0;entryDy=0;" parent="1" source="YpdxZzSUTDV1Zn9vbhq5-2" target="YpdxZzSUTDV1Zn9vbhq5-9" edge="1">
          <mxGeometry relative="1" as="geometry" />
        </mxCell>
        <mxCell id="YpdxZzSUTDV1Zn9vbhq5-15" style="edgeStyle=orthogonalEdgeStyle;rounded=0;orthogonalLoop=1;jettySize=auto;html=1;exitX=0.5;exitY=1;exitDx=0;exitDy=0;entryX=0;entryY=0.5;entryDx=0;entryDy=0;" parent="1" source="YpdxZzSUTDV1Zn9vbhq5-2" target="YpdxZzSUTDV1Zn9vbhq5-13" edge="1">
          <mxGeometry relative="1" as="geometry" />
        </mxCell>
        <mxCell id="YpdxZzSUTDV1Zn9vbhq5-2" value="11001001" style="rounded=0;whiteSpace=wrap;html=1;fontFamily=Lucida Console;fontSize=20;fontColor=#B5739D;" parent="1" vertex="1">
          <mxGeometry x="120" y="150" width="120" height="60" as="geometry" />
        </mxCell>
        <mxCell id="YpdxZzSUTDV1Zn9vbhq5-4" value="1001001&lt;font color=&quot;#000000&quot;&gt;0&lt;/font&gt;" style="rounded=0;whiteSpace=wrap;html=1;fontFamily=Lucida Console;fontSize=20;fontColor=#B5739D;" parent="1" vertex="1">
          <mxGeometry x="520" y="150" width="120" height="60" as="geometry" />
        </mxCell>
        <mxCell id="YpdxZzSUTDV1Zn9vbhq5-11" style="edgeStyle=orthogonalEdgeStyle;rounded=0;orthogonalLoop=1;jettySize=auto;html=1;exitX=1;exitY=0.5;exitDx=0;exitDy=0;entryX=0;entryY=0.5;entryDx=0;entryDy=0;" parent="1" source="YpdxZzSUTDV1Zn9vbhq5-9" target="YpdxZzSUTDV1Zn9vbhq5-4" edge="1">
          <mxGeometry relative="1" as="geometry" />
        </mxCell>
        <mxCell id="YpdxZzSUTDV1Zn9vbhq5-9" value="Left shift &lt;font face=&quot;Lucida Console&quot;&gt;(&amp;lt;&amp;lt;)&lt;/font&gt;" style="text;html=1;strokeColor=none;fillColor=none;align=center;verticalAlign=middle;whiteSpace=wrap;rounded=0;fontFamily=Garamond;fontSize=20;" parent="1" vertex="1">
          <mxGeometry x="300" y="165" width="160" height="30" as="geometry" />
        </mxCell>
        <mxCell id="YpdxZzSUTDV1Zn9vbhq5-12" value="&lt;font color=&quot;#000000&quot;&gt;0&lt;/font&gt;1100100" style="rounded=0;whiteSpace=wrap;html=1;fontFamily=Lucida Console;fontSize=20;fontColor=#B5739D;" parent="1" vertex="1">
          <mxGeometry x="520" y="250" width="120" height="60" as="geometry" />
        </mxCell>
        <mxCell id="YpdxZzSUTDV1Zn9vbhq5-14" style="edgeStyle=orthogonalEdgeStyle;rounded=0;orthogonalLoop=1;jettySize=auto;html=1;exitX=1;exitY=0.5;exitDx=0;exitDy=0;entryX=0;entryY=0.5;entryDx=0;entryDy=0;" parent="1" source="YpdxZzSUTDV1Zn9vbhq5-13" target="YpdxZzSUTDV1Zn9vbhq5-12" edge="1">
          <mxGeometry relative="1" as="geometry" />
        </mxCell>
        <mxCell id="YpdxZzSUTDV1Zn9vbhq5-13" value="Right shift &lt;font face=&quot;Lucida Console&quot;&gt;(&amp;gt;&amp;gt;)&lt;/font&gt;" style="text;html=1;strokeColor=none;fillColor=none;align=center;verticalAlign=middle;whiteSpace=wrap;rounded=0;fontFamily=Garamond;fontSize=20;" parent="1" vertex="1">
          <mxGeometry x="300" y="265" width="160" height="30" as="geometry" />
        </mxCell>
        <mxCell id="YpdxZzSUTDV1Zn9vbhq5-16" value="Bit shift" style="text;html=1;strokeColor=none;fillColor=none;align=center;verticalAlign=middle;whiteSpace=wrap;rounded=0;fontFamily=Garamond;fontSize=20;fontStyle=4" parent="1" vertex="1">
          <mxGeometry x="320" y="320" width="160" height="40" as="geometry" />
        </mxCell>
        <mxCell id="YpdxZzSUTDV1Zn9vbhq5-29" style="edgeStyle=orthogonalEdgeStyle;rounded=0;orthogonalLoop=1;jettySize=auto;html=1;exitX=1;exitY=0.5;exitDx=0;exitDy=0;entryX=0;entryY=0.25;entryDx=0;entryDy=0;" parent="1" source="YpdxZzSUTDV1Zn9vbhq5-17" target="YpdxZzSUTDV1Zn9vbhq5-23" edge="1">
          <mxGeometry relative="1" as="geometry" />
        </mxCell>
        <mxCell id="YpdxZzSUTDV1Zn9vbhq5-17" value="11001001" style="rounded=0;whiteSpace=wrap;html=1;fontFamily=Lucida Console;fontSize=20;fontColor=#B5739D;" parent="1" vertex="1">
          <mxGeometry x="120" y="360" width="120" height="60" as="geometry" />
        </mxCell>
        <mxCell id="YpdxZzSUTDV1Zn9vbhq5-18" value="Bit masking means hiding some bits from an existing bitstream.&lt;br style=&quot;font-size: 20px;&quot;&gt;E.g. If the first 2 bits are to masked out, bitwise AND operation can be used." style="text;html=1;strokeColor=none;fillColor=none;align=left;verticalAlign=top;whiteSpace=wrap;rounded=0;spacing=6;fontSize=20;fontFamily=Garamond;" parent="1" vertex="1">
          <mxGeometry x="120" y="510" width="520" height="90" as="geometry" />
        </mxCell>
        <mxCell id="YpdxZzSUTDV1Zn9vbhq5-28" style="edgeStyle=orthogonalEdgeStyle;rounded=0;orthogonalLoop=1;jettySize=auto;html=1;exitX=1;exitY=0.5;exitDx=0;exitDy=0;entryX=0;entryY=0.75;entryDx=0;entryDy=0;" parent="1" source="YpdxZzSUTDV1Zn9vbhq5-19" target="YpdxZzSUTDV1Zn9vbhq5-23" edge="1">
          <mxGeometry relative="1" as="geometry" />
        </mxCell>
        <mxCell id="YpdxZzSUTDV1Zn9vbhq5-19" value="00111111" style="rounded=0;whiteSpace=wrap;html=1;fontFamily=Lucida Console;fontSize=20;fontColor=default;" parent="1" vertex="1">
          <mxGeometry x="120" y="440" width="120" height="60" as="geometry" />
        </mxCell>
        <mxCell id="YpdxZzSUTDV1Zn9vbhq5-22" value="&lt;font color=&quot;#000000&quot;&gt;00&lt;/font&gt;001001" style="rounded=0;whiteSpace=wrap;html=1;fontFamily=Lucida Console;fontSize=20;fontColor=#B5739D;" parent="1" vertex="1">
          <mxGeometry x="520" y="400" width="120" height="60" as="geometry" />
        </mxCell>
        <mxCell id="YpdxZzSUTDV1Zn9vbhq5-30" style="edgeStyle=orthogonalEdgeStyle;rounded=0;orthogonalLoop=1;jettySize=auto;html=1;exitX=1;exitY=0.5;exitDx=0;exitDy=0;entryX=0;entryY=0.5;entryDx=0;entryDy=0;" parent="1" source="YpdxZzSUTDV1Zn9vbhq5-23" target="YpdxZzSUTDV1Zn9vbhq5-22" edge="1">
          <mxGeometry relative="1" as="geometry" />
        </mxCell>
        <mxCell id="YpdxZzSUTDV1Zn9vbhq5-23" value="Bitwise AND &lt;font face=&quot;Lucida Console&quot;&gt;(&amp;amp;)&lt;/font&gt;" style="text;html=1;strokeColor=none;fillColor=none;align=center;verticalAlign=middle;whiteSpace=wrap;rounded=0;fontFamily=Garamond;fontSize=20;" parent="1" vertex="1">
          <mxGeometry x="300" y="410" width="160" height="40" as="geometry" />
        </mxCell>
        <mxCell id="YpdxZzSUTDV1Zn9vbhq5-31" value="Bit masking" style="text;html=1;strokeColor=none;fillColor=none;align=center;verticalAlign=middle;whiteSpace=wrap;rounded=0;fontFamily=Garamond;fontSize=20;fontStyle=4" parent="1" vertex="1">
          <mxGeometry x="320" y="600" width="160" height="40" as="geometry" />
        </mxCell>
      </root>
    </mxGraphModel>
  </diagram>
  <diagram id="iNotb1F45nBeIOcLdRKf" name="Page-5">
    <mxGraphModel dx="794" dy="559" grid="1" gridSize="10" guides="1" tooltips="1" connect="1" arrows="1" fold="1" page="1" pageScale="1" pageWidth="1100" pageHeight="850" math="0" shadow="0">
      <root>
        <mxCell id="0" />
        <mxCell id="1" parent="0" />
        <mxCell id="LnUTd1ogQdSAkgvQXrR_-3" value="Hash&lt;br style=&quot;font-size: 20px;&quot;&gt;&lt;div style=&quot;font-size: 20px;&quot;&gt;&lt;span style=&quot;background-color: initial; font-size: 20px;&quot;&gt;function&lt;/span&gt;&lt;/div&gt;" style="rounded=0;html=1;align=left;spacingTop=0;spacingLeft=0;spacingRight=0;spacingBottom=0;spacing=6;fontSize=20;fontFamily=Garamond;" parent="1" vertex="1">
          <mxGeometry x="260" y="200" width="80" height="80" as="geometry" />
        </mxCell>
        <mxCell id="LnUTd1ogQdSAkgvQXrR_-48" style="edgeStyle=orthogonalEdgeStyle;rounded=0;orthogonalLoop=1;jettySize=auto;html=1;exitX=1;exitY=0.5;exitDx=0;exitDy=0;entryX=0;entryY=0.25;entryDx=0;entryDy=0;" parent="1" source="LnUTd1ogQdSAkgvQXrR_-5" target="LnUTd1ogQdSAkgvQXrR_-3" edge="1">
          <mxGeometry relative="1" as="geometry" />
        </mxCell>
        <mxCell id="LnUTd1ogQdSAkgvQXrR_-5" value="The Shawshank&lt;br style=&quot;font-size: 20px;&quot;&gt;Redemption" style="rounded=0;html=1;fontFamily=Garamond;fontSize=20;spacing=6;align=left;" parent="1" vertex="1">
          <mxGeometry x="40" y="130" width="140" height="60" as="geometry" />
        </mxCell>
        <mxCell id="LnUTd1ogQdSAkgvQXrR_-6" style="edgeStyle=orthogonalEdgeStyle;rounded=0;orthogonalLoop=1;jettySize=auto;html=1;exitX=1;exitY=0.5;exitDx=0;exitDy=0;entryX=0;entryY=0.5;entryDx=0;entryDy=0;spacing=6;fontFamily=Garamond;fontSize=20;" parent="1" source="LnUTd1ogQdSAkgvQXrR_-7" target="LnUTd1ogQdSAkgvQXrR_-3" edge="1">
          <mxGeometry relative="1" as="geometry" />
        </mxCell>
        <mxCell id="LnUTd1ogQdSAkgvQXrR_-7" value="The Godfather" style="rounded=0;html=1;fontFamily=Garamond;fontSize=20;spacing=6;align=left;" parent="1" vertex="1">
          <mxGeometry x="40" y="210" width="140" height="60" as="geometry" />
        </mxCell>
        <mxCell id="LnUTd1ogQdSAkgvQXrR_-8" style="edgeStyle=orthogonalEdgeStyle;rounded=0;orthogonalLoop=1;jettySize=auto;html=1;exitX=1;exitY=0.5;exitDx=0;exitDy=0;entryX=0;entryY=0.75;entryDx=0;entryDy=0;spacing=6;fontFamily=Garamond;fontSize=20;" parent="1" source="LnUTd1ogQdSAkgvQXrR_-9" target="LnUTd1ogQdSAkgvQXrR_-3" edge="1">
          <mxGeometry relative="1" as="geometry">
            <mxPoint x="220" y="260" as="targetPoint" />
          </mxGeometry>
        </mxCell>
        <mxCell id="LnUTd1ogQdSAkgvQXrR_-9" value="The Dark &lt;br style=&quot;font-size: 20px;&quot;&gt;Knight" style="rounded=0;html=1;fontFamily=Garamond;fontSize=20;spacing=6;align=left;" parent="1" vertex="1">
          <mxGeometry x="40" y="370" width="140" height="60" as="geometry" />
        </mxCell>
        <mxCell id="LnUTd1ogQdSAkgvQXrR_-10" value="Hash table" style="rounded=0;whiteSpace=wrap;html=1;fontFamily=Garamond;fontSize=20;spacing=6;" parent="1" vertex="1">
          <mxGeometry x="460" y="200" width="100" height="40" as="geometry" />
        </mxCell>
        <mxCell id="LnUTd1ogQdSAkgvQXrR_-12" value="null" style="rounded=0;whiteSpace=wrap;html=1;fontFamily=Garamond;fontSize=20;spacing=6;" parent="1" vertex="1">
          <mxGeometry x="560" y="200" width="40" height="40" as="geometry" />
        </mxCell>
        <mxCell id="LnUTd1ogQdSAkgvQXrR_-14" value="null" style="rounded=0;whiteSpace=wrap;html=1;fontFamily=Garamond;fontSize=20;spacing=6;" parent="1" vertex="1">
          <mxGeometry x="600" y="200" width="40" height="40" as="geometry" />
        </mxCell>
        <mxCell id="LnUTd1ogQdSAkgvQXrR_-69" style="edgeStyle=orthogonalEdgeStyle;rounded=0;orthogonalLoop=1;jettySize=auto;html=1;exitX=0.5;exitY=1;exitDx=0;exitDy=0;entryX=0;entryY=0.5;entryDx=0;entryDy=0;dashed=1;dashPattern=8 8;" parent="1" source="LnUTd1ogQdSAkgvQXrR_-16" target="LnUTd1ogQdSAkgvQXrR_-33" edge="1">
          <mxGeometry relative="1" as="geometry">
            <mxPoint x="430" y="450" as="targetPoint" />
            <Array as="points">
              <mxPoint x="660" y="260" />
              <mxPoint x="420" y="260" />
              <mxPoint x="420" y="480" />
            </Array>
          </mxGeometry>
        </mxCell>
        <mxCell id="LnUTd1ogQdSAkgvQXrR_-16" value="" style="rounded=0;whiteSpace=wrap;html=1;fontFamily=Garamond;fontSize=20;spacing=6;" parent="1" vertex="1">
          <mxGeometry x="640" y="200" width="40" height="40" as="geometry" />
        </mxCell>
        <mxCell id="LnUTd1ogQdSAkgvQXrR_-18" value="null" style="rounded=0;whiteSpace=wrap;html=1;fontFamily=Garamond;fontSize=20;spacing=6;" parent="1" vertex="1">
          <mxGeometry x="720" y="200" width="40" height="40" as="geometry" />
        </mxCell>
        <mxCell id="LnUTd1ogQdSAkgvQXrR_-66" style="edgeStyle=orthogonalEdgeStyle;rounded=0;orthogonalLoop=1;jettySize=auto;html=1;exitX=0.5;exitY=1;exitDx=0;exitDy=0;entryX=0;entryY=0.5;entryDx=0;entryDy=0;dashed=1;dashPattern=8 8;" parent="1" source="LnUTd1ogQdSAkgvQXrR_-20" target="LnUTd1ogQdSAkgvQXrR_-28" edge="1">
          <mxGeometry relative="1" as="geometry">
            <Array as="points">
              <mxPoint x="780" y="280" />
              <mxPoint x="440" y="280" />
              <mxPoint x="440" y="320" />
            </Array>
          </mxGeometry>
        </mxCell>
        <mxCell id="LnUTd1ogQdSAkgvQXrR_-20" value="" style="rounded=0;whiteSpace=wrap;html=1;fontFamily=Garamond;fontSize=20;spacing=6;" parent="1" vertex="1">
          <mxGeometry x="760" y="200" width="40" height="40" as="geometry" />
        </mxCell>
        <mxCell id="LnUTd1ogQdSAkgvQXrR_-67" style="edgeStyle=orthogonalEdgeStyle;rounded=0;orthogonalLoop=1;jettySize=auto;html=1;exitX=0.5;exitY=1;exitDx=0;exitDy=0;entryX=0;entryY=0.5;entryDx=0;entryDy=0;dashed=1;dashPattern=8 8;" parent="1" source="LnUTd1ogQdSAkgvQXrR_-22" target="LnUTd1ogQdSAkgvQXrR_-31" edge="1">
          <mxGeometry relative="1" as="geometry">
            <Array as="points">
              <mxPoint x="700" y="270" />
              <mxPoint x="430" y="270" />
              <mxPoint x="430" y="400" />
            </Array>
          </mxGeometry>
        </mxCell>
        <mxCell id="LnUTd1ogQdSAkgvQXrR_-22" value="" style="rounded=0;whiteSpace=wrap;html=1;fontFamily=Garamond;fontSize=20;spacing=6;" parent="1" vertex="1">
          <mxGeometry x="680" y="200" width="40" height="40" as="geometry" />
        </mxCell>
        <mxCell id="LnUTd1ogQdSAkgvQXrR_-24" value="2" style="shape=or;whiteSpace=wrap;html=1;direction=north;fontSize=20;fontFamily=Garamond;spacing=6;" parent="1" vertex="1">
          <mxGeometry x="640" y="170" width="40" height="30" as="geometry" />
        </mxCell>
        <mxCell id="LnUTd1ogQdSAkgvQXrR_-26" value="3" style="shape=or;whiteSpace=wrap;html=1;direction=north;fontSize=20;fontFamily=Garamond;spacing=6;" parent="1" vertex="1">
          <mxGeometry x="680" y="170" width="40" height="30" as="geometry" />
        </mxCell>
        <mxCell id="LnUTd1ogQdSAkgvQXrR_-27" value="5" style="shape=or;whiteSpace=wrap;html=1;direction=north;fontSize=20;fontFamily=Garamond;spacing=6;" parent="1" vertex="1">
          <mxGeometry x="760" y="170" width="40" height="30" as="geometry" />
        </mxCell>
        <mxCell id="LnUTd1ogQdSAkgvQXrR_-28" value="The Shawshank&lt;br style=&quot;font-size: 20px;&quot;&gt;Redemption" style="rounded=0;html=1;fontFamily=Garamond;fontSize=20;spacing=6;align=left;" parent="1" vertex="1">
          <mxGeometry x="460" y="290" width="140" height="60" as="geometry" />
        </mxCell>
        <mxCell id="LnUTd1ogQdSAkgvQXrR_-30" value="1994" style="rounded=0;html=1;fontFamily=Garamond;fontSize=20;spacing=6;align=left;" parent="1" vertex="1">
          <mxGeometry x="600" y="290" width="60" height="60" as="geometry" />
        </mxCell>
        <mxCell id="LnUTd1ogQdSAkgvQXrR_-31" value="The Godfather" style="rounded=0;html=1;fontFamily=Garamond;fontSize=20;spacing=6;align=left;" parent="1" vertex="1">
          <mxGeometry x="460" y="370" width="140" height="60" as="geometry" />
        </mxCell>
        <mxCell id="LnUTd1ogQdSAkgvQXrR_-40" style="edgeStyle=orthogonalEdgeStyle;rounded=0;orthogonalLoop=1;jettySize=auto;html=1;exitX=1;exitY=0.5;exitDx=0;exitDy=0;entryX=0;entryY=0.5;entryDx=0;entryDy=0;" parent="1" source="LnUTd1ogQdSAkgvQXrR_-32" target="LnUTd1ogQdSAkgvQXrR_-38" edge="1">
          <mxGeometry relative="1" as="geometry" />
        </mxCell>
        <mxCell id="LnUTd1ogQdSAkgvQXrR_-32" value="1972" style="rounded=0;html=1;fontFamily=Garamond;fontSize=20;spacing=6;align=left;" parent="1" vertex="1">
          <mxGeometry x="600" y="370" width="60" height="60" as="geometry" />
        </mxCell>
        <mxCell id="LnUTd1ogQdSAkgvQXrR_-33" value="The Dark &lt;br&gt;Knight" style="rounded=0;html=1;fontFamily=Garamond;fontSize=20;spacing=6;align=left;" parent="1" vertex="1">
          <mxGeometry x="460" y="450" width="140" height="60" as="geometry" />
        </mxCell>
        <mxCell id="LnUTd1ogQdSAkgvQXrR_-43" style="edgeStyle=orthogonalEdgeStyle;rounded=0;orthogonalLoop=1;jettySize=auto;html=1;exitX=1;exitY=0.5;exitDx=0;exitDy=0;entryX=0;entryY=0.5;entryDx=0;entryDy=0;" parent="1" source="LnUTd1ogQdSAkgvQXrR_-34" target="LnUTd1ogQdSAkgvQXrR_-41" edge="1">
          <mxGeometry relative="1" as="geometry" />
        </mxCell>
        <mxCell id="LnUTd1ogQdSAkgvQXrR_-34" value="2008" style="rounded=0;html=1;fontFamily=Garamond;fontSize=20;spacing=6;align=left;" parent="1" vertex="1">
          <mxGeometry x="600" y="450" width="60" height="60" as="geometry" />
        </mxCell>
        <mxCell id="LnUTd1ogQdSAkgvQXrR_-38" value="The Godfather&lt;br&gt;Part II" style="rounded=0;html=1;fontFamily=Garamond;fontSize=20;spacing=6;align=left;" parent="1" vertex="1">
          <mxGeometry x="680" y="370" width="140" height="60" as="geometry" />
        </mxCell>
        <mxCell id="LnUTd1ogQdSAkgvQXrR_-39" value="1974" style="rounded=0;html=1;fontFamily=Garamond;fontSize=20;spacing=6;align=left;" parent="1" vertex="1">
          <mxGeometry x="820" y="370" width="60" height="60" as="geometry" />
        </mxCell>
        <mxCell id="LnUTd1ogQdSAkgvQXrR_-41" value="12 Angry Men" style="rounded=0;html=1;fontFamily=Garamond;fontSize=20;spacing=6;align=left;" parent="1" vertex="1">
          <mxGeometry x="680" y="450" width="140" height="60" as="geometry" />
        </mxCell>
        <mxCell id="LnUTd1ogQdSAkgvQXrR_-42" value="1957" style="rounded=0;html=1;fontFamily=Garamond;fontSize=20;spacing=6;align=left;" parent="1" vertex="1">
          <mxGeometry x="820" y="450" width="60" height="60" as="geometry" />
        </mxCell>
        <mxCell id="LnUTd1ogQdSAkgvQXrR_-55" style="edgeStyle=orthogonalEdgeStyle;rounded=0;orthogonalLoop=1;jettySize=auto;html=1;exitX=1;exitY=0.5;exitDx=0;exitDy=0;endArrow=none;endFill=0;" parent="1" source="LnUTd1ogQdSAkgvQXrR_-49" edge="1">
          <mxGeometry relative="1" as="geometry">
            <mxPoint x="200" y="240" as="targetPoint" />
          </mxGeometry>
        </mxCell>
        <mxCell id="LnUTd1ogQdSAkgvQXrR_-49" value="The Godfather&lt;br&gt;Part II" style="rounded=0;html=1;fontFamily=Garamond;fontSize=20;spacing=6;align=left;" parent="1" vertex="1">
          <mxGeometry x="40" y="290" width="140" height="60" as="geometry" />
        </mxCell>
        <mxCell id="LnUTd1ogQdSAkgvQXrR_-56" style="edgeStyle=orthogonalEdgeStyle;rounded=0;orthogonalLoop=1;jettySize=auto;html=1;exitX=1;exitY=0.5;exitDx=0;exitDy=0;endArrow=none;endFill=0;" parent="1" source="LnUTd1ogQdSAkgvQXrR_-50" edge="1">
          <mxGeometry relative="1" as="geometry">
            <mxPoint x="200" y="400" as="targetPoint" />
          </mxGeometry>
        </mxCell>
        <mxCell id="LnUTd1ogQdSAkgvQXrR_-50" value="12 Angry Men" style="rounded=0;html=1;fontFamily=Garamond;fontSize=20;spacing=6;align=left;" parent="1" vertex="1">
          <mxGeometry x="40" y="450" width="140" height="60" as="geometry" />
        </mxCell>
        <mxCell id="LnUTd1ogQdSAkgvQXrR_-63" style="edgeStyle=orthogonalEdgeStyle;rounded=0;orthogonalLoop=1;jettySize=auto;html=1;exitX=1;exitY=0.25;exitDx=0;exitDy=0;entryX=1;entryY=0.5;entryDx=0;entryDy=0;entryPerimeter=0;dashed=1;dashPattern=8 8;" parent="1" source="LnUTd1ogQdSAkgvQXrR_-3" target="LnUTd1ogQdSAkgvQXrR_-27" edge="1">
          <mxGeometry relative="1" as="geometry">
            <Array as="points">
              <mxPoint x="350" y="220" />
              <mxPoint x="350" y="130" />
              <mxPoint x="780" y="130" />
            </Array>
          </mxGeometry>
        </mxCell>
        <mxCell id="LnUTd1ogQdSAkgvQXrR_-64" style="edgeStyle=orthogonalEdgeStyle;rounded=0;orthogonalLoop=1;jettySize=auto;html=1;exitX=1;exitY=0.5;exitDx=0;exitDy=0;entryX=1;entryY=0.5;entryDx=0;entryDy=0;entryPerimeter=0;dashed=1;dashPattern=8 8;" parent="1" source="LnUTd1ogQdSAkgvQXrR_-3" target="LnUTd1ogQdSAkgvQXrR_-26" edge="1">
          <mxGeometry relative="1" as="geometry">
            <Array as="points">
              <mxPoint x="360" y="240" />
              <mxPoint x="360" y="140" />
              <mxPoint x="700" y="140" />
            </Array>
          </mxGeometry>
        </mxCell>
        <mxCell id="LnUTd1ogQdSAkgvQXrR_-65" style="edgeStyle=orthogonalEdgeStyle;rounded=0;orthogonalLoop=1;jettySize=auto;html=1;exitX=1;exitY=0.75;exitDx=0;exitDy=0;entryX=1;entryY=0.5;entryDx=0;entryDy=0;entryPerimeter=0;dashed=1;dashPattern=8 8;" parent="1" source="LnUTd1ogQdSAkgvQXrR_-3" target="LnUTd1ogQdSAkgvQXrR_-24" edge="1">
          <mxGeometry relative="1" as="geometry">
            <Array as="points">
              <mxPoint x="370" y="260" />
              <mxPoint x="370" y="150" />
              <mxPoint x="660" y="150" />
            </Array>
          </mxGeometry>
        </mxCell>
      </root>
    </mxGraphModel>
  </diagram>
  <diagram id="6yEhWQTqtQLOc2R2nboR" name="Page-6">
    <mxGraphModel dx="794" dy="559" grid="1" gridSize="10" guides="1" tooltips="1" connect="1" arrows="1" fold="1" page="1" pageScale="1" pageWidth="1100" pageHeight="850" math="0" shadow="0">
      <root>
        <mxCell id="0" />
        <mxCell id="1" parent="0" />
        <mxCell id="MTTkIDasdBcM8pUlr0uK-1" value="Hash&lt;br style=&quot;font-size: 20px;&quot;&gt;&lt;div style=&quot;font-size: 20px;&quot;&gt;&lt;span style=&quot;background-color: initial; font-size: 20px;&quot;&gt;function&lt;/span&gt;&lt;/div&gt;" style="rounded=0;html=1;align=left;spacingTop=0;spacingLeft=0;spacingRight=0;spacingBottom=0;spacing=6;fontSize=20;fontFamily=Garamond;" parent="1" vertex="1">
          <mxGeometry x="260" y="200" width="80" height="80" as="geometry" />
        </mxCell>
        <mxCell id="MTTkIDasdBcM8pUlr0uK-2" style="edgeStyle=orthogonalEdgeStyle;rounded=0;orthogonalLoop=1;jettySize=auto;html=1;exitX=1;exitY=0.5;exitDx=0;exitDy=0;entryX=0;entryY=0.25;entryDx=0;entryDy=0;" parent="1" source="MTTkIDasdBcM8pUlr0uK-3" target="MTTkIDasdBcM8pUlr0uK-1" edge="1">
          <mxGeometry relative="1" as="geometry" />
        </mxCell>
        <mxCell id="MTTkIDasdBcM8pUlr0uK-3" value="The Shawshank&lt;br style=&quot;font-size: 20px;&quot;&gt;Redemption" style="rounded=0;html=1;fontFamily=Garamond;fontSize=20;spacing=6;align=left;" parent="1" vertex="1">
          <mxGeometry x="40" y="130" width="140" height="60" as="geometry" />
        </mxCell>
        <mxCell id="MTTkIDasdBcM8pUlr0uK-4" style="edgeStyle=orthogonalEdgeStyle;rounded=0;orthogonalLoop=1;jettySize=auto;html=1;exitX=1;exitY=0.5;exitDx=0;exitDy=0;entryX=0;entryY=0.5;entryDx=0;entryDy=0;spacing=6;fontFamily=Garamond;fontSize=20;" parent="1" source="MTTkIDasdBcM8pUlr0uK-5" target="MTTkIDasdBcM8pUlr0uK-1" edge="1">
          <mxGeometry relative="1" as="geometry" />
        </mxCell>
        <mxCell id="MTTkIDasdBcM8pUlr0uK-5" value="The Godfather" style="rounded=0;html=1;fontFamily=Garamond;fontSize=20;spacing=6;align=left;" parent="1" vertex="1">
          <mxGeometry x="40" y="210" width="140" height="60" as="geometry" />
        </mxCell>
        <mxCell id="MTTkIDasdBcM8pUlr0uK-6" style="edgeStyle=orthogonalEdgeStyle;rounded=0;orthogonalLoop=1;jettySize=auto;html=1;exitX=1;exitY=0.5;exitDx=0;exitDy=0;entryX=0;entryY=0.75;entryDx=0;entryDy=0;spacing=6;fontFamily=Garamond;fontSize=20;" parent="1" source="MTTkIDasdBcM8pUlr0uK-7" target="MTTkIDasdBcM8pUlr0uK-1" edge="1">
          <mxGeometry relative="1" as="geometry">
            <mxPoint x="220" y="260" as="targetPoint" />
          </mxGeometry>
        </mxCell>
        <mxCell id="MTTkIDasdBcM8pUlr0uK-7" value="The Dark &lt;br style=&quot;font-size: 20px;&quot;&gt;Knight" style="rounded=0;html=1;fontFamily=Garamond;fontSize=20;spacing=6;align=left;" parent="1" vertex="1">
          <mxGeometry x="40" y="370" width="140" height="60" as="geometry" />
        </mxCell>
        <mxCell id="MTTkIDasdBcM8pUlr0uK-8" value="Hash table" style="rounded=0;whiteSpace=wrap;html=1;fontFamily=Garamond;fontSize=20;spacing=6;" parent="1" vertex="1">
          <mxGeometry x="460" y="200" width="100" height="40" as="geometry" />
        </mxCell>
        <mxCell id="MTTkIDasdBcM8pUlr0uK-9" value="null" style="rounded=0;whiteSpace=wrap;html=1;fontFamily=Garamond;fontSize=20;spacing=6;" parent="1" vertex="1">
          <mxGeometry x="560" y="200" width="40" height="40" as="geometry" />
        </mxCell>
        <mxCell id="MTTkIDasdBcM8pUlr0uK-10" value="null" style="rounded=0;whiteSpace=wrap;html=1;fontFamily=Garamond;fontSize=20;spacing=6;" parent="1" vertex="1">
          <mxGeometry x="600" y="200" width="40" height="40" as="geometry" />
        </mxCell>
        <mxCell id="MTTkIDasdBcM8pUlr0uK-11" style="edgeStyle=orthogonalEdgeStyle;rounded=0;orthogonalLoop=1;jettySize=auto;html=1;exitX=0.5;exitY=1;exitDx=0;exitDy=0;entryX=0;entryY=0.5;entryDx=0;entryDy=0;dashed=1;dashPattern=8 8;" parent="1" source="MTTkIDasdBcM8pUlr0uK-12" target="MTTkIDasdBcM8pUlr0uK-31" edge="1">
          <mxGeometry relative="1" as="geometry">
            <mxPoint x="460" y="480" as="targetPoint" />
            <Array as="points">
              <mxPoint x="660" y="260" />
              <mxPoint x="420" y="260" />
              <mxPoint x="420" y="480" />
            </Array>
          </mxGeometry>
        </mxCell>
        <mxCell id="MTTkIDasdBcM8pUlr0uK-12" value="" style="rounded=0;whiteSpace=wrap;html=1;fontFamily=Garamond;fontSize=20;spacing=6;" parent="1" vertex="1">
          <mxGeometry x="640" y="200" width="40" height="40" as="geometry" />
        </mxCell>
        <mxCell id="MTTkIDasdBcM8pUlr0uK-13" value="null" style="rounded=0;whiteSpace=wrap;html=1;fontFamily=Garamond;fontSize=20;spacing=6;" parent="1" vertex="1">
          <mxGeometry x="720" y="200" width="40" height="40" as="geometry" />
        </mxCell>
        <mxCell id="MTTkIDasdBcM8pUlr0uK-14" style="edgeStyle=orthogonalEdgeStyle;rounded=0;orthogonalLoop=1;jettySize=auto;html=1;exitX=0.5;exitY=1;exitDx=0;exitDy=0;entryX=0;entryY=0.5;entryDx=0;entryDy=0;dashed=1;dashPattern=8 8;" parent="1" source="MTTkIDasdBcM8pUlr0uK-15" target="MTTkIDasdBcM8pUlr0uK-21" edge="1">
          <mxGeometry relative="1" as="geometry">
            <Array as="points">
              <mxPoint x="780" y="280" />
              <mxPoint x="440" y="280" />
              <mxPoint x="440" y="320" />
            </Array>
          </mxGeometry>
        </mxCell>
        <mxCell id="MTTkIDasdBcM8pUlr0uK-15" value="" style="rounded=0;whiteSpace=wrap;html=1;fontFamily=Garamond;fontSize=20;spacing=6;" parent="1" vertex="1">
          <mxGeometry x="760" y="200" width="40" height="40" as="geometry" />
        </mxCell>
        <mxCell id="MTTkIDasdBcM8pUlr0uK-16" style="edgeStyle=orthogonalEdgeStyle;rounded=0;orthogonalLoop=1;jettySize=auto;html=1;exitX=0.5;exitY=1;exitDx=0;exitDy=0;entryX=0;entryY=0.5;entryDx=0;entryDy=0;dashed=1;dashPattern=8 8;" parent="1" source="MTTkIDasdBcM8pUlr0uK-17" target="MTTkIDasdBcM8pUlr0uK-29" edge="1">
          <mxGeometry relative="1" as="geometry">
            <Array as="points">
              <mxPoint x="700" y="270" />
              <mxPoint x="430" y="270" />
              <mxPoint x="430" y="400" />
            </Array>
            <mxPoint x="460" y="400" as="targetPoint" />
          </mxGeometry>
        </mxCell>
        <mxCell id="MTTkIDasdBcM8pUlr0uK-17" value="" style="rounded=0;whiteSpace=wrap;html=1;fontFamily=Garamond;fontSize=20;spacing=6;" parent="1" vertex="1">
          <mxGeometry x="680" y="200" width="40" height="40" as="geometry" />
        </mxCell>
        <mxCell id="MTTkIDasdBcM8pUlr0uK-18" value="2" style="shape=or;whiteSpace=wrap;html=1;direction=north;fontSize=20;fontFamily=Garamond;spacing=6;" parent="1" vertex="1">
          <mxGeometry x="640" y="170" width="40" height="30" as="geometry" />
        </mxCell>
        <mxCell id="MTTkIDasdBcM8pUlr0uK-19" value="3" style="shape=or;whiteSpace=wrap;html=1;direction=north;fontSize=20;fontFamily=Garamond;spacing=6;" parent="1" vertex="1">
          <mxGeometry x="680" y="170" width="40" height="30" as="geometry" />
        </mxCell>
        <mxCell id="MTTkIDasdBcM8pUlr0uK-20" value="5" style="shape=or;whiteSpace=wrap;html=1;direction=north;fontSize=20;fontFamily=Garamond;spacing=6;" parent="1" vertex="1">
          <mxGeometry x="760" y="170" width="40" height="30" as="geometry" />
        </mxCell>
        <mxCell id="MTTkIDasdBcM8pUlr0uK-21" value="The Shawshank&lt;br style=&quot;font-size: 20px;&quot;&gt;Redemption" style="rounded=0;html=1;fontFamily=Garamond;fontSize=20;spacing=6;align=left;" parent="1" vertex="1">
          <mxGeometry x="460" y="290" width="140" height="60" as="geometry" />
        </mxCell>
        <mxCell id="MTTkIDasdBcM8pUlr0uK-22" value="1994" style="rounded=0;html=1;fontFamily=Garamond;fontSize=20;spacing=6;align=left;" parent="1" vertex="1">
          <mxGeometry x="600" y="290" width="60" height="60" as="geometry" />
        </mxCell>
        <mxCell id="MTTkIDasdBcM8pUlr0uK-29" value="The Godfather&lt;br&gt;Part II" style="rounded=0;html=1;fontFamily=Garamond;fontSize=20;spacing=6;align=left;" parent="1" vertex="1">
          <mxGeometry x="460" y="370" width="140" height="60" as="geometry" />
        </mxCell>
        <mxCell id="MTTkIDasdBcM8pUlr0uK-30" value="1974" style="rounded=0;html=1;fontFamily=Garamond;fontSize=20;spacing=6;align=left;" parent="1" vertex="1">
          <mxGeometry x="600" y="370" width="60" height="60" as="geometry" />
        </mxCell>
        <mxCell id="MTTkIDasdBcM8pUlr0uK-31" value="12 Angry Men" style="rounded=0;html=1;fontFamily=Garamond;fontSize=20;spacing=6;align=left;" parent="1" vertex="1">
          <mxGeometry x="460" y="450" width="140" height="60" as="geometry" />
        </mxCell>
        <mxCell id="MTTkIDasdBcM8pUlr0uK-32" value="1957" style="rounded=0;html=1;fontFamily=Garamond;fontSize=20;spacing=6;align=left;" parent="1" vertex="1">
          <mxGeometry x="600" y="450" width="60" height="60" as="geometry" />
        </mxCell>
        <mxCell id="MTTkIDasdBcM8pUlr0uK-33" style="edgeStyle=orthogonalEdgeStyle;rounded=0;orthogonalLoop=1;jettySize=auto;html=1;exitX=1;exitY=0.5;exitDx=0;exitDy=0;endArrow=none;endFill=0;" parent="1" source="MTTkIDasdBcM8pUlr0uK-41" edge="1">
          <mxGeometry relative="1" as="geometry">
            <mxPoint x="200" y="240" as="targetPoint" />
          </mxGeometry>
        </mxCell>
        <mxCell id="MTTkIDasdBcM8pUlr0uK-34" value="The Godfather&lt;br&gt;Part II" style="rounded=0;html=1;fontFamily=Garamond;fontSize=20;spacing=6;align=left;" parent="1" vertex="1">
          <mxGeometry x="40" y="290" width="140" height="60" as="geometry" />
        </mxCell>
        <mxCell id="MTTkIDasdBcM8pUlr0uK-35" style="edgeStyle=orthogonalEdgeStyle;rounded=0;orthogonalLoop=1;jettySize=auto;html=1;exitX=1;exitY=0.5;exitDx=0;exitDy=0;endArrow=none;endFill=0;" parent="1" source="MTTkIDasdBcM8pUlr0uK-82" edge="1">
          <mxGeometry relative="1" as="geometry">
            <mxPoint x="200" y="400" as="targetPoint" />
          </mxGeometry>
        </mxCell>
        <mxCell id="MTTkIDasdBcM8pUlr0uK-36" value="12 Angry Men" style="rounded=0;html=1;fontFamily=Garamond;fontSize=20;spacing=6;align=left;" parent="1" vertex="1">
          <mxGeometry x="40" y="450" width="140" height="60" as="geometry" />
        </mxCell>
        <mxCell id="MTTkIDasdBcM8pUlr0uK-37" style="edgeStyle=orthogonalEdgeStyle;rounded=0;orthogonalLoop=1;jettySize=auto;html=1;exitX=1;exitY=0.25;exitDx=0;exitDy=0;entryX=1;entryY=0.5;entryDx=0;entryDy=0;entryPerimeter=0;dashed=1;dashPattern=8 8;" parent="1" source="MTTkIDasdBcM8pUlr0uK-1" target="MTTkIDasdBcM8pUlr0uK-20" edge="1">
          <mxGeometry relative="1" as="geometry">
            <Array as="points">
              <mxPoint x="350" y="220" />
              <mxPoint x="350" y="130" />
              <mxPoint x="780" y="130" />
            </Array>
          </mxGeometry>
        </mxCell>
        <mxCell id="MTTkIDasdBcM8pUlr0uK-38" style="edgeStyle=orthogonalEdgeStyle;rounded=0;orthogonalLoop=1;jettySize=auto;html=1;exitX=1;exitY=0.5;exitDx=0;exitDy=0;entryX=1;entryY=0.5;entryDx=0;entryDy=0;entryPerimeter=0;dashed=1;dashPattern=8 8;" parent="1" source="MTTkIDasdBcM8pUlr0uK-1" target="MTTkIDasdBcM8pUlr0uK-19" edge="1">
          <mxGeometry relative="1" as="geometry">
            <Array as="points">
              <mxPoint x="360" y="240" />
              <mxPoint x="360" y="140" />
              <mxPoint x="700" y="140" />
            </Array>
          </mxGeometry>
        </mxCell>
        <mxCell id="MTTkIDasdBcM8pUlr0uK-39" style="edgeStyle=orthogonalEdgeStyle;rounded=0;orthogonalLoop=1;jettySize=auto;html=1;exitX=1;exitY=0.75;exitDx=0;exitDy=0;entryX=1;entryY=0.5;entryDx=0;entryDy=0;entryPerimeter=0;dashed=1;dashPattern=8 8;" parent="1" source="MTTkIDasdBcM8pUlr0uK-1" target="MTTkIDasdBcM8pUlr0uK-18" edge="1">
          <mxGeometry relative="1" as="geometry">
            <Array as="points">
              <mxPoint x="370" y="260" />
              <mxPoint x="370" y="150" />
              <mxPoint x="660" y="150" />
            </Array>
          </mxGeometry>
        </mxCell>
        <mxCell id="MTTkIDasdBcM8pUlr0uK-40" value="Newer pairs inserted into the buckets and the older pairs are lost." style="text;html=1;strokeColor=none;fillColor=none;align=center;verticalAlign=middle;whiteSpace=wrap;rounded=0;fontFamily=Georgia;fontSize=16;labelPosition=center;verticalLabelPosition=middle;" parent="1" vertex="1">
          <mxGeometry x="680" y="370" width="160" height="140" as="geometry" />
        </mxCell>
        <mxCell id="MTTkIDasdBcM8pUlr0uK-42" value="" style="edgeStyle=orthogonalEdgeStyle;rounded=0;orthogonalLoop=1;jettySize=auto;html=1;exitX=1;exitY=0.5;exitDx=0;exitDy=0;endArrow=none;endFill=0;entryX=0.5;entryY=0.5;entryDx=0;entryDy=0;entryPerimeter=0;" parent="1" source="MTTkIDasdBcM8pUlr0uK-34" target="MTTkIDasdBcM8pUlr0uK-41" edge="1">
          <mxGeometry relative="1" as="geometry">
            <mxPoint x="200" y="210" as="targetPoint" />
            <mxPoint x="180" y="320" as="sourcePoint" />
          </mxGeometry>
        </mxCell>
        <mxCell id="MTTkIDasdBcM8pUlr0uK-41" value="" style="ellipse;whiteSpace=wrap;html=1;labelBackgroundColor=none;fillColor=none;strokeWidth=2;strokeColor=default;gradientColor=none;" parent="1" vertex="1">
          <mxGeometry x="190" y="230" width="20" height="20" as="geometry" />
        </mxCell>
        <mxCell id="MTTkIDasdBcM8pUlr0uK-83" value="" style="edgeStyle=orthogonalEdgeStyle;rounded=0;orthogonalLoop=1;jettySize=auto;html=1;exitX=1;exitY=0.5;exitDx=0;exitDy=0;endArrow=none;endFill=0;entryX=0.5;entryY=0.5;entryDx=0;entryDy=0;entryPerimeter=0;" parent="1" source="MTTkIDasdBcM8pUlr0uK-36" target="MTTkIDasdBcM8pUlr0uK-82" edge="1">
          <mxGeometry relative="1" as="geometry">
            <mxPoint x="200" y="370" as="targetPoint" />
            <mxPoint x="180" y="480" as="sourcePoint" />
          </mxGeometry>
        </mxCell>
        <mxCell id="MTTkIDasdBcM8pUlr0uK-82" value="" style="ellipse;whiteSpace=wrap;html=1;labelBackgroundColor=none;fillColor=none;strokeWidth=2;strokeColor=default;gradientColor=none;" parent="1" vertex="1">
          <mxGeometry x="190" y="390" width="20" height="20" as="geometry" />
        </mxCell>
        <mxCell id="MTTkIDasdBcM8pUlr0uK-84" value="" style="ellipse;whiteSpace=wrap;html=1;labelBackgroundColor=none;fillColor=none;strokeWidth=2;strokeColor=default;gradientColor=none;" parent="1" vertex="1">
          <mxGeometry x="250" y="440" width="20" height="20" as="geometry" />
        </mxCell>
        <mxCell id="MTTkIDasdBcM8pUlr0uK-85" value="Collision" style="text;html=1;strokeColor=none;fillColor=none;align=center;verticalAlign=middle;whiteSpace=wrap;rounded=0;fontFamily=Garamond;fontSize=18;" parent="1" vertex="1">
          <mxGeometry x="280" y="435" width="60" height="30" as="geometry" />
        </mxCell>
      </root>
    </mxGraphModel>
  </diagram>
  <diagram id="sMLlzpj0-U3v9HH6ul8f" name="Page-7">
    <mxGraphModel dx="794" dy="559" grid="1" gridSize="10" guides="1" tooltips="1" connect="1" arrows="1" fold="1" page="1" pageScale="1" pageWidth="1100" pageHeight="850" math="0" shadow="0">
      <root>
        <mxCell id="0" />
        <mxCell id="1" parent="0" />
        <mxCell id="OUzjBqaxPNHOc2oesgrc-58" style="edgeStyle=orthogonalEdgeStyle;rounded=0;orthogonalLoop=1;jettySize=auto;html=1;exitX=1;exitY=0.5;exitDx=0;exitDy=0;entryX=0;entryY=0.5;entryDx=0;entryDy=0;" edge="1" parent="1" source="OUzjBqaxPNHOc2oesgrc-5" target="OUzjBqaxPNHOc2oesgrc-7">
          <mxGeometry relative="1" as="geometry" />
        </mxCell>
        <mxCell id="OUzjBqaxPNHOc2oesgrc-5" value="Linear" style="rounded=0;whiteSpace=wrap;html=1;align=center;spacing=8;fontFamily=Garamond;fontSize=20;" vertex="1" parent="1">
          <mxGeometry x="120" y="200" width="100" height="40" as="geometry" />
        </mxCell>
        <mxCell id="OUzjBqaxPNHOc2oesgrc-59" style="edgeStyle=orthogonalEdgeStyle;rounded=0;orthogonalLoop=1;jettySize=auto;html=1;exitX=1;exitY=0.5;exitDx=0;exitDy=0;entryX=0;entryY=0.5;entryDx=0;entryDy=0;" edge="1" parent="1" source="OUzjBqaxPNHOc2oesgrc-6" target="OUzjBqaxPNHOc2oesgrc-32">
          <mxGeometry relative="1" as="geometry" />
        </mxCell>
        <mxCell id="OUzjBqaxPNHOc2oesgrc-6" value="Quadratic" style="rounded=0;whiteSpace=wrap;html=1;align=center;spacing=8;fontFamily=Garamond;fontSize=20;" vertex="1" parent="1">
          <mxGeometry x="120" y="320" width="100" height="40" as="geometry" />
        </mxCell>
        <mxCell id="OUzjBqaxPNHOc2oesgrc-7" value="0" style="rounded=0;whiteSpace=wrap;html=1;fontFamily=Lucida Console;fontSize=18;" vertex="1" parent="1">
          <mxGeometry x="240" y="200" width="40" height="40" as="geometry" />
        </mxCell>
        <mxCell id="OUzjBqaxPNHOc2oesgrc-9" value="1" style="rounded=0;whiteSpace=wrap;html=1;fontFamily=Lucida Console;fontSize=18;" vertex="1" parent="1">
          <mxGeometry x="280" y="200" width="40" height="40" as="geometry" />
        </mxCell>
        <mxCell id="OUzjBqaxPNHOc2oesgrc-10" value="2" style="rounded=0;whiteSpace=wrap;html=1;fontFamily=Lucida Console;fontSize=18;" vertex="1" parent="1">
          <mxGeometry x="320" y="200" width="40" height="40" as="geometry" />
        </mxCell>
        <mxCell id="OUzjBqaxPNHOc2oesgrc-11" value="3" style="rounded=0;whiteSpace=wrap;html=1;fontFamily=Lucida Console;fontSize=18;" vertex="1" parent="1">
          <mxGeometry x="360" y="200" width="40" height="40" as="geometry" />
        </mxCell>
        <mxCell id="OUzjBqaxPNHOc2oesgrc-12" value="4" style="rounded=0;whiteSpace=wrap;html=1;fontFamily=Lucida Console;fontSize=18;" vertex="1" parent="1">
          <mxGeometry x="400" y="200" width="40" height="40" as="geometry" />
        </mxCell>
        <mxCell id="OUzjBqaxPNHOc2oesgrc-13" value="5" style="rounded=0;whiteSpace=wrap;html=1;fontFamily=Lucida Console;fontSize=18;" vertex="1" parent="1">
          <mxGeometry x="440" y="200" width="40" height="40" as="geometry" />
        </mxCell>
        <mxCell id="OUzjBqaxPNHOc2oesgrc-14" value="6" style="rounded=0;whiteSpace=wrap;html=1;fontFamily=Lucida Console;fontSize=18;" vertex="1" parent="1">
          <mxGeometry x="480" y="200" width="40" height="40" as="geometry" />
        </mxCell>
        <mxCell id="OUzjBqaxPNHOc2oesgrc-15" value="7" style="rounded=0;whiteSpace=wrap;html=1;fontFamily=Lucida Console;fontSize=18;" vertex="1" parent="1">
          <mxGeometry x="520" y="200" width="40" height="40" as="geometry" />
        </mxCell>
        <mxCell id="OUzjBqaxPNHOc2oesgrc-16" value="8" style="rounded=0;whiteSpace=wrap;html=1;fontFamily=Lucida Console;fontSize=18;" vertex="1" parent="1">
          <mxGeometry x="560" y="200" width="40" height="40" as="geometry" />
        </mxCell>
        <mxCell id="OUzjBqaxPNHOc2oesgrc-17" value="9" style="rounded=0;whiteSpace=wrap;html=1;fontFamily=Lucida Console;fontSize=18;" vertex="1" parent="1">
          <mxGeometry x="600" y="200" width="40" height="40" as="geometry" />
        </mxCell>
        <mxCell id="OUzjBqaxPNHOc2oesgrc-18" value="10" style="rounded=0;whiteSpace=wrap;html=1;fontFamily=Lucida Console;fontSize=18;" vertex="1" parent="1">
          <mxGeometry x="640" y="200" width="40" height="40" as="geometry" />
        </mxCell>
        <mxCell id="OUzjBqaxPNHOc2oesgrc-73" style="edgeStyle=orthogonalEdgeStyle;rounded=0;orthogonalLoop=1;jettySize=auto;html=1;exitX=1;exitY=0.5;exitDx=0;exitDy=0;entryX=1;entryY=0.5;entryDx=0;entryDy=0;" edge="1" parent="1" source="OUzjBqaxPNHOc2oesgrc-19" target="OUzjBqaxPNHOc2oesgrc-71">
          <mxGeometry relative="1" as="geometry" />
        </mxCell>
        <mxCell id="OUzjBqaxPNHOc2oesgrc-19" value="11" style="rounded=0;whiteSpace=wrap;html=1;fontFamily=Lucida Console;fontSize=18;" vertex="1" parent="1">
          <mxGeometry x="680" y="200" width="40" height="40" as="geometry" />
        </mxCell>
        <mxCell id="OUzjBqaxPNHOc2oesgrc-32" value="0" style="rounded=0;whiteSpace=wrap;html=1;fontFamily=Lucida Console;fontSize=18;" vertex="1" parent="1">
          <mxGeometry x="240" y="320" width="40" height="40" as="geometry" />
        </mxCell>
        <mxCell id="OUzjBqaxPNHOc2oesgrc-33" value="1" style="rounded=0;whiteSpace=wrap;html=1;fontFamily=Lucida Console;fontSize=18;" vertex="1" parent="1">
          <mxGeometry x="280" y="320" width="40" height="40" as="geometry" />
        </mxCell>
        <mxCell id="OUzjBqaxPNHOc2oesgrc-34" value="2" style="rounded=0;whiteSpace=wrap;html=1;fontFamily=Lucida Console;fontSize=18;" vertex="1" parent="1">
          <mxGeometry x="320" y="320" width="40" height="40" as="geometry" />
        </mxCell>
        <mxCell id="OUzjBqaxPNHOc2oesgrc-35" value="3" style="rounded=0;whiteSpace=wrap;html=1;fontFamily=Lucida Console;fontSize=18;" vertex="1" parent="1">
          <mxGeometry x="360" y="320" width="40" height="40" as="geometry" />
        </mxCell>
        <mxCell id="OUzjBqaxPNHOc2oesgrc-36" value="4" style="rounded=0;whiteSpace=wrap;html=1;fontFamily=Lucida Console;fontSize=18;" vertex="1" parent="1">
          <mxGeometry x="400" y="320" width="40" height="40" as="geometry" />
        </mxCell>
        <mxCell id="OUzjBqaxPNHOc2oesgrc-37" value="5" style="rounded=0;whiteSpace=wrap;html=1;fontFamily=Lucida Console;fontSize=18;" vertex="1" parent="1">
          <mxGeometry x="440" y="320" width="40" height="40" as="geometry" />
        </mxCell>
        <mxCell id="OUzjBqaxPNHOc2oesgrc-38" value="6" style="rounded=0;whiteSpace=wrap;html=1;fontFamily=Lucida Console;fontSize=18;" vertex="1" parent="1">
          <mxGeometry x="480" y="320" width="40" height="40" as="geometry" />
        </mxCell>
        <mxCell id="OUzjBqaxPNHOc2oesgrc-39" value="7" style="rounded=0;whiteSpace=wrap;html=1;fontFamily=Lucida Console;fontSize=18;" vertex="1" parent="1">
          <mxGeometry x="520" y="320" width="40" height="40" as="geometry" />
        </mxCell>
        <mxCell id="OUzjBqaxPNHOc2oesgrc-40" value="8" style="rounded=0;whiteSpace=wrap;html=1;fontFamily=Lucida Console;fontSize=18;" vertex="1" parent="1">
          <mxGeometry x="560" y="320" width="40" height="40" as="geometry" />
        </mxCell>
        <mxCell id="OUzjBqaxPNHOc2oesgrc-41" value="9" style="rounded=0;whiteSpace=wrap;html=1;fontFamily=Lucida Console;fontSize=18;" vertex="1" parent="1">
          <mxGeometry x="600" y="320" width="40" height="40" as="geometry" />
        </mxCell>
        <mxCell id="OUzjBqaxPNHOc2oesgrc-42" value="10" style="rounded=0;whiteSpace=wrap;html=1;fontFamily=Lucida Console;fontSize=18;" vertex="1" parent="1">
          <mxGeometry x="640" y="320" width="40" height="40" as="geometry" />
        </mxCell>
        <mxCell id="OUzjBqaxPNHOc2oesgrc-57" style="edgeStyle=orthogonalEdgeStyle;rounded=0;orthogonalLoop=1;jettySize=auto;html=1;exitX=1;exitY=0.5;exitDx=0;exitDy=0;entryX=1;entryY=0.5;entryDx=0;entryDy=0;" edge="1" parent="1" source="OUzjBqaxPNHOc2oesgrc-43" target="OUzjBqaxPNHOc2oesgrc-55">
          <mxGeometry relative="1" as="geometry" />
        </mxCell>
        <mxCell id="OUzjBqaxPNHOc2oesgrc-43" value="11" style="rounded=0;whiteSpace=wrap;html=1;fontFamily=Lucida Console;fontSize=18;" vertex="1" parent="1">
          <mxGeometry x="680" y="320" width="40" height="40" as="geometry" />
        </mxCell>
        <mxCell id="OUzjBqaxPNHOc2oesgrc-44" value="23" style="rounded=0;whiteSpace=wrap;html=1;fontFamily=Lucida Console;fontSize=18;" vertex="1" parent="1">
          <mxGeometry x="240" y="380" width="40" height="40" as="geometry" />
        </mxCell>
        <mxCell id="OUzjBqaxPNHOc2oesgrc-45" value="22" style="rounded=0;whiteSpace=wrap;html=1;fontFamily=Lucida Console;fontSize=18;" vertex="1" parent="1">
          <mxGeometry x="280" y="380" width="40" height="40" as="geometry" />
        </mxCell>
        <mxCell id="OUzjBqaxPNHOc2oesgrc-46" value="21" style="rounded=0;whiteSpace=wrap;html=1;fontFamily=Lucida Console;fontSize=18;" vertex="1" parent="1">
          <mxGeometry x="320" y="380" width="40" height="40" as="geometry" />
        </mxCell>
        <mxCell id="OUzjBqaxPNHOc2oesgrc-47" value="20" style="rounded=0;whiteSpace=wrap;html=1;fontFamily=Lucida Console;fontSize=18;" vertex="1" parent="1">
          <mxGeometry x="360" y="380" width="40" height="40" as="geometry" />
        </mxCell>
        <mxCell id="OUzjBqaxPNHOc2oesgrc-48" value="19" style="rounded=0;whiteSpace=wrap;html=1;fontFamily=Lucida Console;fontSize=18;" vertex="1" parent="1">
          <mxGeometry x="400" y="380" width="40" height="40" as="geometry" />
        </mxCell>
        <mxCell id="OUzjBqaxPNHOc2oesgrc-49" value="18" style="rounded=0;whiteSpace=wrap;html=1;fontFamily=Lucida Console;fontSize=18;" vertex="1" parent="1">
          <mxGeometry x="440" y="380" width="40" height="40" as="geometry" />
        </mxCell>
        <mxCell id="OUzjBqaxPNHOc2oesgrc-50" value="17" style="rounded=0;whiteSpace=wrap;html=1;fontFamily=Lucida Console;fontSize=18;" vertex="1" parent="1">
          <mxGeometry x="480" y="380" width="40" height="40" as="geometry" />
        </mxCell>
        <mxCell id="OUzjBqaxPNHOc2oesgrc-51" value="16" style="rounded=0;whiteSpace=wrap;html=1;fontFamily=Lucida Console;fontSize=18;" vertex="1" parent="1">
          <mxGeometry x="520" y="380" width="40" height="40" as="geometry" />
        </mxCell>
        <mxCell id="OUzjBqaxPNHOc2oesgrc-52" value="15" style="rounded=0;whiteSpace=wrap;html=1;fontFamily=Lucida Console;fontSize=18;" vertex="1" parent="1">
          <mxGeometry x="560" y="380" width="40" height="40" as="geometry" />
        </mxCell>
        <mxCell id="OUzjBqaxPNHOc2oesgrc-53" value="14" style="rounded=0;whiteSpace=wrap;html=1;fontFamily=Lucida Console;fontSize=18;" vertex="1" parent="1">
          <mxGeometry x="600" y="380" width="40" height="40" as="geometry" />
        </mxCell>
        <mxCell id="OUzjBqaxPNHOc2oesgrc-54" value="13" style="rounded=0;whiteSpace=wrap;html=1;fontFamily=Lucida Console;fontSize=18;" vertex="1" parent="1">
          <mxGeometry x="640" y="380" width="40" height="40" as="geometry" />
        </mxCell>
        <mxCell id="OUzjBqaxPNHOc2oesgrc-55" value="12" style="rounded=0;whiteSpace=wrap;html=1;fontFamily=Lucida Console;fontSize=18;" vertex="1" parent="1">
          <mxGeometry x="680" y="380" width="40" height="40" as="geometry" />
        </mxCell>
        <mxCell id="OUzjBqaxPNHOc2oesgrc-60" value="23" style="rounded=0;whiteSpace=wrap;html=1;fontFamily=Lucida Console;fontSize=18;" vertex="1" parent="1">
          <mxGeometry x="240" y="260" width="40" height="40" as="geometry" />
        </mxCell>
        <mxCell id="OUzjBqaxPNHOc2oesgrc-61" value="22" style="rounded=0;whiteSpace=wrap;html=1;fontFamily=Lucida Console;fontSize=18;" vertex="1" parent="1">
          <mxGeometry x="280" y="260" width="40" height="40" as="geometry" />
        </mxCell>
        <mxCell id="OUzjBqaxPNHOc2oesgrc-62" value="21" style="rounded=0;whiteSpace=wrap;html=1;fontFamily=Lucida Console;fontSize=18;" vertex="1" parent="1">
          <mxGeometry x="320" y="260" width="40" height="40" as="geometry" />
        </mxCell>
        <mxCell id="OUzjBqaxPNHOc2oesgrc-63" value="20" style="rounded=0;whiteSpace=wrap;html=1;fontFamily=Lucida Console;fontSize=18;" vertex="1" parent="1">
          <mxGeometry x="360" y="260" width="40" height="40" as="geometry" />
        </mxCell>
        <mxCell id="OUzjBqaxPNHOc2oesgrc-64" value="19" style="rounded=0;whiteSpace=wrap;html=1;fontFamily=Lucida Console;fontSize=18;" vertex="1" parent="1">
          <mxGeometry x="400" y="260" width="40" height="40" as="geometry" />
        </mxCell>
        <mxCell id="OUzjBqaxPNHOc2oesgrc-65" value="18" style="rounded=0;whiteSpace=wrap;html=1;fontFamily=Lucida Console;fontSize=18;" vertex="1" parent="1">
          <mxGeometry x="440" y="260" width="40" height="40" as="geometry" />
        </mxCell>
        <mxCell id="OUzjBqaxPNHOc2oesgrc-66" value="17" style="rounded=0;whiteSpace=wrap;html=1;fontFamily=Lucida Console;fontSize=18;" vertex="1" parent="1">
          <mxGeometry x="480" y="260" width="40" height="40" as="geometry" />
        </mxCell>
        <mxCell id="OUzjBqaxPNHOc2oesgrc-67" value="16" style="rounded=0;whiteSpace=wrap;html=1;fontFamily=Lucida Console;fontSize=18;" vertex="1" parent="1">
          <mxGeometry x="520" y="260" width="40" height="40" as="geometry" />
        </mxCell>
        <mxCell id="OUzjBqaxPNHOc2oesgrc-68" value="15" style="rounded=0;whiteSpace=wrap;html=1;fontFamily=Lucida Console;fontSize=18;" vertex="1" parent="1">
          <mxGeometry x="560" y="260" width="40" height="40" as="geometry" />
        </mxCell>
        <mxCell id="OUzjBqaxPNHOc2oesgrc-69" value="14" style="rounded=0;whiteSpace=wrap;html=1;fontFamily=Lucida Console;fontSize=18;" vertex="1" parent="1">
          <mxGeometry x="600" y="260" width="40" height="40" as="geometry" />
        </mxCell>
        <mxCell id="OUzjBqaxPNHOc2oesgrc-70" value="13" style="rounded=0;whiteSpace=wrap;html=1;fontFamily=Lucida Console;fontSize=18;" vertex="1" parent="1">
          <mxGeometry x="640" y="260" width="40" height="40" as="geometry" />
        </mxCell>
        <mxCell id="OUzjBqaxPNHOc2oesgrc-71" value="12" style="rounded=0;whiteSpace=wrap;html=1;fontFamily=Lucida Console;fontSize=18;" vertex="1" parent="1">
          <mxGeometry x="680" y="260" width="40" height="40" as="geometry" />
        </mxCell>
      </root>
    </mxGraphModel>
  </diagram>
</mxfile>
